<?xml version="1.0" encoding="UTF-8" standalone="no"?>
<svg
   xmlns:dc="http://purl.org/dc/elements/1.1/"
   xmlns:cc="http://creativecommons.org/ns#"
   xmlns:rdf="http://www.w3.org/1999/02/22-rdf-syntax-ns#"
   xmlns:svg="http://www.w3.org/2000/svg"
   xmlns="http://www.w3.org/2000/svg"
   xmlns:sodipodi="http://sodipodi.sourceforge.net/DTD/sodipodi-0.dtd"
   xmlns:inkscape="http://www.inkscape.org/namespaces/inkscape"
   viewBox="-99.5 70.5 141 47"
   enable-background="new -99.5 70.5 141 47"
   id="svg2"
   version="1.1"
   inkscape:version="0.91 r13725"
   sodipodi:docname="logo.svg">
  <metadata
     id="metadata32">
    <rdf:RDF>
      <cc:Work
         rdf:about="">
        <dc:format>image/svg+xml</dc:format>
        <dc:type
           rdf:resource="http://purl.org/dc/dcmitype/StillImage" />
      </cc:Work>
    </rdf:RDF>
  </metadata>
  <defs
     id="defs30">
    <linearGradient
       gradientTransform="matrix(39.8,0,0,45.8,4501.6,2.3)"
       y2="1.735"
       x2="-114.586"
       y1="2.243"
       x1="-115.577"
       gradientUnits="userSpaceOnUse"
       id="Shape_2_">
      <stop
         id="stop12"
         stop-color="#FF4C61"
         offset="0" />
      <stop
         id="stop14"
         stop-color="#F51C2B"
         offset="1" />
    </linearGradient>
  </defs>
  <sodipodi:namedview
     pagecolor="#ffffff"
     bordercolor="#666666"
     borderopacity="1"
     objecttolerance="10"
     gridtolerance="10"
     guidetolerance="10"
     inkscape:pageopacity="0"
     inkscape:pageshadow="2"
     inkscape:window-width="640"
     inkscape:window-height="480"
     id="namedview28"
     showgrid="false" />
  <style
     type="text/css"
     id="style4">.st0{fill:url(#Shape_2_);} .st1{fill:#FF6169;} .st2{fill:#FFFFFF;} .st3{fill:#FFB4B5;} .st4{opacity:0.9;} .st5{fill:#21303F;}</style>
  <title
     id="title6">Page-1_12_</title>
  <desc
     id="desc8">Created with Sketch Beta.</desc>
  <path
     inkscape:connector-curvature="0"
     style="fill:url(#Shape_2_)"
     d="M -78.4,116.3 -98.3,105 -98.5,82.1 -78.8,70.5 -59,81.7 l 0.2,22.9 -19.6,11.7 z"
     class="st0"
     id="Shape" />
  <g
     id="Shape_1_">
    <path
       style="fill:#ff6169"
       inkscape:connector-curvature="0"
       id="path18"
       d="m -85.2,98.9 0,5.3 12.5,-7 0,-5.4 -12.5,7.1 z"
       class="st1" />
    <path
       style="fill:#ffffff"
       inkscape:connector-curvature="0"
       id="path20"
       d="m -85.2,88.2 -4.7,-2.6 0,16 4.6,2.6 0,-5.3 4.6,2.7 0.1,-5.4 -4.7,-2.6 0.1,-5.4"
       class="st2" />
    <path
       style="fill:#ffb4b5"
       inkscape:connector-curvature="0"
       id="path22"
       d="m -80.6,96.2 0,5.4 12.4,-7.1 0,-5.3 -12.4,7 z m 7.8,-15 -12.5,7 0,5.4 12.5,-7.1 0,-5.3 z"
       class="st3" />
    <path
       style="fill:#ff6169"
       inkscape:connector-curvature="0"
       id="path24"
       d="m -72.7,86.5 -12.5,7.1 4.6,2.6 12.4,-7.1 -4.5,-2.6 z m -0.1,-5.3 -4.6,-2.7 -12.5,7.1 4.6,2.6 12.5,-7 z"
       class="st1" />
  </g>
  <path
     style="fill:#21303f"
     inkscape:connector-curvature="0"
     id="path26"
     d="m -43.4,78.2 0,10.3 -2.8,0 0,-10.3 -2.3,0 0,-2.4 7.5,0 0,2.4 -2.4,0 z m 10,5.7 0,4.6 -2.8,0 0,-4.6 -3.2,-8.2 3.1,0 1.5,5.3 1.5,-5.3 3.1,0 -3.2,8.2 z m 13.8,-4.1 c 0,0.7 -0.1,1.3 -0.3,1.8 -0.2,0.5 -0.5,0.9 -0.9,1.3 -0.4,0.4 -0.8,0.6 -1.2,0.7 -0.4,0.1 -0.9,0.2 -1.4,0.2 l -1.2,0 0,4.6 -2.8,0 0,-12.6 4,0 c 0.5,0 0.9,0.1 1.4,0.2 0.5,0.1 0.9,0.4 1.3,0.7 0.4,0.3 0.7,0.7 0.9,1.2 0.1,0.5 0.2,1.1 0.2,1.9 z m -2.7,0 c 0,-0.6 -0.1,-1 -0.4,-1.2 -0.3,-0.3 -0.6,-0.4 -1,-0.4 l -0.9,0 0,3.3 0.9,0 c 0.4,0 0.7,-0.1 1,-0.4 0.3,-0.3 0.4,-0.7 0.4,-1.3 z m 5.6,8.7 0,-12.7 6.2,0 0,2.5 -3.5,0 0,2.5 3.1,0 0,2.4 -3.1,0 0,2.7 3.6,0 0,2.6 -6.3,0 z m 9.8,0 0,-12.7 2.9,0 0,10.1 3.4,0 0,2.7 -6.3,0 z m 9.4,0 0,-12.7 6.2,0 0,2.5 -3.4,0 0,2.5 3.1,0 0,2.4 -3.1,0 0,2.7 3.6,0 0,2.6 -6.4,0 z m 15.5,0 -3.7,0 -3.1,-12.7 3.3,0 1.7,9.3 1.7,-9.3 3.1,0 -3,12.7 z m 6,0 0,-12.7 6.2,0 0,2.5 -3.4,0 0,2.5 3.1,0 0,2.4 -3.1,0 0,2.7 3.6,0 0,2.6 -6.4,0 z m 9.9,0 0,-12.7 2.9,0 0,10.1 3.4,0 0,2.7 -6.3,0 z m -76,13.3 c -0.2,-0.3 -0.5,-0.4 -0.8,-0.6 -0.3,-0.1 -0.6,-0.2 -0.9,-0.2 -0.3,0 -0.6,0.1 -0.9,0.3 -0.3,0.2 -0.4,0.5 -0.4,1 0,0.4 0.1,0.7 0.4,0.9 0.3,0.2 0.7,0.5 1.2,0.7 0.3,0.1 0.6,0.3 0.9,0.5 0.3,0.2 0.6,0.4 0.9,0.7 0.3,0.3 0.5,0.6 0.7,1 0.2,0.4 0.3,0.9 0.3,1.4 0,0.7 -0.1,1.3 -0.3,1.8 -0.2,0.5 -0.5,1 -0.9,1.3 -0.4,0.3 -0.8,0.6 -1.3,0.8 -0.5,0.2 -1,0.3 -1.5,0.3 -0.8,0 -1.5,-0.1 -2.1,-0.4 -0.6,-0.3 -1.1,-0.6 -1.5,-1 l 1.5,-2.2 c 0.3,0.3 0.6,0.5 1,0.7 0.4,0.2 0.7,0.3 1.1,0.3 0.3,0 0.6,-0.1 0.9,-0.3 0.2,-0.2 0.4,-0.5 0.4,-1 0,-0.4 -0.1,-0.8 -0.4,-1 -0.3,-0.2 -0.7,-0.5 -1.3,-0.8 l -1,-0.6 c -0.3,-0.2 -0.6,-0.4 -0.8,-0.7 -0.2,-0.3 -0.4,-0.6 -0.5,-1 -0.1,-0.4 -0.2,-0.8 -0.2,-1.4 0,-0.7 0.1,-1.3 0.4,-1.8 0.2,-0.5 0.5,-0.9 0.9,-1.3 0.4,-0.3 0.8,-0.6 1.3,-0.7 0.5,-0.2 0.9,-0.2 1.4,-0.2 0.7,0 1.3,0.1 1.9,0.3 0.6,0.2 1,0.5 1.4,0.9 l -1.8,2.3 z m 10.8,9.5 c -0.6,0.3 -1.3,0.5 -2.2,0.5 -0.7,0 -1.4,-0.2 -2,-0.5 -0.6,-0.3 -1.1,-0.8 -1.6,-1.4 -0.5,-0.6 -0.8,-1.3 -1,-2.1 -0.2,-0.8 -0.4,-1.7 -0.4,-2.7 0,-1 0.1,-1.9 0.4,-2.7 0.2,-0.8 0.6,-1.5 1,-2.1 0.4,-0.6 1,-1 1.6,-1.4 0.6,-0.3 1.3,-0.5 2,-0.5 0.9,0 1.6,0.2 2.1,0.5 0.5,0.3 1,0.7 1.4,1.1 l -1.5,2.1 c -0.2,-0.3 -0.5,-0.5 -0.7,-0.7 -0.2,-0.2 -0.6,-0.3 -1,-0.3 -0.4,0 -0.7,0.1 -1,0.3 -0.3,0.2 -0.5,0.5 -0.7,0.8 -0.2,0.4 -0.3,0.8 -0.4,1.3 -0.1,0.5 -0.1,1 -0.1,1.6 0,0.6 0,1.1 0.1,1.5 0.1,0.5 0.2,0.9 0.4,1.3 0.2,0.4 0.4,0.6 0.7,0.8 0.3,0.2 0.6,0.3 1,0.3 0.4,0 0.7,-0.1 1,-0.3 0.3,-0.2 0.5,-0.4 0.7,-0.7 l 1.6,2 c -0.3,0.6 -0.8,1 -1.4,1.3 z m 9.8,0.2 -0.5,-2.3 -2.9,0 -0.5,2.3 -2.9,0 3.1,-12.7 3.6,0 3.1,12.7 -3,0 z m -1.9,-10 -1.2,5.4 2.2,0 -1,-5.4 z m 7.8,10 0,-12.7 2.9,0 0,10.1 3.4,0 0,2.7 -6.3,0 z m 15.1,0 -0.5,-2.3 -2.9,0 -0.5,2.3 -2.9,0 3.1,-12.7 3.6,0 3.1,12.7 -3,0 z m -2,-10 -1.2,5.4 2.2,0 -1,-5.4 z"
     class="st5" />
</svg>
